<svg width="126" height="32" viewBox="0 0 126 32" fill="none" xmlns="http://www.w3.org/2000/svg">
<path d="M0 32C8.83656 32 16 24.8366 16 16C16 7.16344 8.83656 0 0 0V32Z" fill="white"/>
<path d="M32 32C23.1634 32 16 24.8366 16 16C16 7.16344 23.1634 0 32 0V32Z" fill="white"/>
<path d="M54.88 24.884C50.272 24.884 47.104 21.548 47.104 16.004C47.104 10.508 50.224 7.076 54.904 7.076C59.128 7.076 61.384 9.332 62.128 13.052L59.392 13.196C58.936 10.868 57.496 9.452 54.904 9.452C51.808 9.452 49.792 11.948 49.792 16.004C49.792 20.084 51.832 22.508 54.88 22.508C57.64 22.508 59.104 20.948 59.512 18.404L62.248 18.548C61.6 22.412 59.08 24.884 54.88 24.884ZM69.6346 24.788C65.9626 24.788 63.5626 22.172 63.5626 18.116C63.5626 14.06 65.9626 11.444 69.6346 11.444C73.2826 11.444 75.6826 14.06 75.6826 18.116C75.6826 22.172 73.2826 24.788 69.6346 24.788ZM69.6346 22.58C71.7946 22.58 73.0426 20.924 73.0426 18.116C73.0426 15.308 71.7946 13.652 69.6346 13.652C67.4746 13.652 66.2026 15.308 66.2026 18.116C66.2026 20.924 67.4746 22.58 69.6346 22.58ZM77.6725 24.5V11.732H80.0005L80.0485 13.964C80.7205 12.212 82.1845 11.444 83.9365 11.444C86.7925 11.444 88.2565 13.508 88.2565 16.292V24.5H85.7125V17.06C85.7125 14.804 85.0165 13.58 83.2405 13.58C81.4405 13.58 80.2165 14.804 80.2165 17.06V24.5H77.6725ZM96.0121 28.388C92.9641 28.388 90.9721 26.924 90.4441 24.716L93.0841 24.548C93.4201 25.628 94.1881 26.276 96.0121 26.276C98.1241 26.276 99.2761 25.412 99.2761 23.564V21.716C98.6521 23.012 97.2121 23.852 95.5561 23.852C92.3401 23.852 90.0601 21.332 90.0601 17.66C90.0601 14.012 92.3161 11.444 95.4841 11.444C97.2841 11.444 98.7721 12.332 99.3721 13.748V11.732H101.844V23.492C101.844 26.636 99.5881 28.388 96.0121 28.388ZM95.9641 21.692C97.9801 21.692 99.2761 20.156 99.3001 17.636C99.3241 15.14 98.0041 13.604 95.9641 13.604C93.9001 13.604 92.7001 15.164 92.7001 17.636C92.7001 20.132 93.9481 21.692 95.9641 21.692ZM104.732 24.5V11.732H107.06L107.132 14.156C107.612 12.476 108.62 11.732 110.18 11.732H111.404V14.012H110.18C108.236 14.012 107.276 14.948 107.276 16.964V24.5H104.732ZM116.519 24.788C113.879 24.788 112.151 23.516 112.151 21.308C112.151 19.124 113.447 17.948 116.231 17.396L120.623 16.556C120.623 14.588 119.711 13.604 117.887 13.604C116.255 13.604 115.343 14.348 115.007 15.74L112.367 15.572C112.847 13.028 114.839 11.444 117.887 11.444C121.343 11.444 123.167 13.388 123.167 16.7V21.668C123.167 22.292 123.383 22.484 123.863 22.484H124.319V24.5C124.151 24.548 123.743 24.572 123.383 24.572C121.919 24.572 121.055 24.02 120.839 22.532C120.191 23.876 118.511 24.788 116.519 24.788ZM116.951 22.772C119.231 22.772 120.623 21.332 120.623 19.292V18.476L116.903 19.196C115.367 19.484 114.791 20.084 114.791 21.068C114.791 22.172 115.583 22.772 116.951 22.772Z" fill="white"/>
</svg>
